<?xml version="1.0" encoding="utf-8"?>
<!-- Generator: Adobe Illustrator 21.0.0, SVG Export Plug-In . SVG Version: 6.00 Build 0)  -->
<svg version="1.1" id="Layer_1" xmlns="http://www.w3.org/2000/svg" xmlns:xlink="http://www.w3.org/1999/xlink" x="0px" y="0px"
	 viewBox="0 0 512 512" style="enable-background:new 0 0 512 512;" xml:space="preserve">
<g>
	<path style="fill:#fff" d="M359.3,337.2c15.1-8.1,32.3-12.7,50.7-12.7h0.1c1.9,0,2.7-2.2,1.4-3.5c-19.1-17.1-40.9-31-64.6-41
		c-0.2-0.1-0.5-0.2-0.7-0.3c38.7-28.1,63.8-73.7,63.8-125.3C409.9,69.1,340.9,0,255.8,0c-85.1,0-154.1,69.1-154.1,154.5
		c0,51.5,25.2,97.2,63.9,125.3c-0.2,0.1-0.5,0.2-0.7,0.3c-27.8,11.8-52.8,28.7-74.3,50.2c-21.4,21.3-38.4,46.6-50.1,74.4
		c-11.5,27.2-17.7,56.4-18.3,86c-0.1,2.8,2.1,5,4.9,5.1l0.1,0h37.3c2.7,0,4.9-2.2,5-4.9c1.2-48.1,20.5-93.1,54.6-127.3
		c35.2-35.3,82-54.8,131.9-54.8c35.3,0,69.2,9.8,98.4,28.1C355.8,338,357.7,338.1,359.3,337.2z M255.8,261.6
		c-28.5,0-55.4-11.1-75.6-31.4c-20.1-20.1-31.4-47.3-31.3-75.7c0-28.6,11.1-55.5,31.3-75.7c20.2-20.2,47-31.4,75.6-31.4
		c28.6,0,55.4,11.1,75.6,31.4c20.1,20.1,31.4,47.3,31.3,75.7c0,28.6-11.1,55.5-31.3,75.7C311.2,250.5,284.3,261.6,255.8,261.6z
		 M484.9,409.8h-52.3v-52.3c0-2.7-2.2-5-5-5h-34.9c-2.7,0-5,2.2-5,5v52.3h-52.3c-2.7,0-5,2.2-5,5v34.9c0,2.7,2.2,5,5,5h52.3V507
		c0,2.7,2.2,5,5,5h34.9c2.7,0,5-2.2,5-5v-52.3h52.3c2.7,0,5-2.2,5-5v-34.9C489.9,412.1,487.6,409.8,484.9,409.8z"/>
</g>
</svg>
